<svg xmlns="http://www.w3.org/2000/svg" opacity=".85" viewBox="0 0 2400 800"><defs><linearGradient id="a" x1="50%" x2="50%" y1="0%" y2="100%"><stop offset="0%" stop-color="hsl(208, 77%, 50%)"/><stop offset="100%" stop-color="hsl(208, 74%, 93%)"/></linearGradient></defs><g fill="url(#a)" transform="translate(0 -54.27)"><path d="M0 368.85q592.362 122.15 800 .103Q1210.724 491 1600 344.54 2085.618 491 2400 356.397V841H0V367.532Z" opacity=".05"/><path d="M0 409.85q592.362 122.15 800 .103Q1210.724 532 1600 385.54 2085.618 532 2400 397.397V882H0V408.532Z" opacity=".37"/><path d="M0 450.85q592.362 122.15 800 .103Q1210.724 573 1600 426.54 2085.618 573 2400 438.397V923H0V449.532Z" opacity=".68"/><path d="M0 491.85q592.362 122.15 800 .103Q1210.724 614 1600 467.54 2085.618 614 2400 479.397V964H0V490.532Z"/></g></svg>